Woe, Is Me - [&] Delinquents Music Video (2010) MP4-BSAA.mp4
Format                           : MPEG-4
Format profile                   : Base Media / Version 2
Codec ID                         : mp42
File size                        : 50.7 MiB
Duration                         : 2mn 57s
Overall bit rate                 : 2 402 Kbps

Video
ID                               : 1
Format                           : AVC
Format/Info                      : Advanced Video Codec
Format profile                   : High@L3.1
Format settings, CABAC           : Yes
Format settings, ReFrames        : 1 frame
Codec ID                         : avc1
Codec ID/Info                    : Advanced Video Coding
Duration                         : 2mn 57s
Bit rate mode                    : Variable
Bit rate                         : 2 268 Kbps
Maximum bit rate                 : 5 069 Kbps
Width                            : 1 280 pixels
Height                           : 720 pixels
Display aspect ratio             : 16:9
Frame rate mode                  : Variable
Frame rate                       : 23.976 fps
Minimum frame rate               : 17.241 fps
Maximum frame rate               : 24.390 fps
Color space                      : YUV
Chroma subsampling               : 4:2:0
Bit depth                        : 8 bits
Scan type                        : Progressive
Bits/(Pixel*Frame)               : 0.103
Stream size                      : 47.9 MiB (94%)
Tagged date                      : UTC 2010-11-28 21:07:17

Audio
ID                               : 2
Format                           : AAC
Format/Info                      : Advanced Audio Codec
Format profile                   : LC
Codec ID                         : 40
Duration                         : 2mn 57s
Bit rate mode                    : Variable
Bit rate                         : 128 Kbps
Maximum bit rate                 : 217 Kbps
Channel(s)                       : 2 channels
Channel positions                : Front: L R
Sampling rate                    : 44.1 KHz
Compression mode                 : Lossy
Stream size                      : 2.70 MiB (5%)